<?xml version="1.0" encoding="UTF-8"?>
<!-- <!DOCTYPE svg PUBLIC "-//W3C//DTD SVG 1.1//EN" "http://www.w3.org/Graphics/SVG/1.1/DTD/svg11.dtd"> -->
<!-- Creator: CorelDRAW 2018 (64-Bit) -->
<?xml-stylesheet href="wire_arrow.css" type="text/css"?>
<svg xmlns="http://www.w3.org/2000/svg" xml:space="preserve" width="50px" height="71px" version="1.1" style="shape-rendering:geometricPrecision; text-rendering:geometricPrecision; image-rendering:optimizeQuality; fill-rule:evenodd; clip-rule:evenodd"
viewBox="0 0 50 70.71"
 xmlns:xlink="http://www.w3.org/1999/xlink">
 <g id="Слой_x0020_1">
  <metadata id="CorelCorpID_0Corel-Layer"/>
  <g id="_3075361909904">
   <path class="fil0 str0" d="M26.47 20.09c0.21,-0.22 0.47,-0.26 0.7,-0.06l0.02 0.01 0.01 0.01 0.63 0.64c0.13,0.15 0.1,0.15 0.27,-0.03l1.21 -1.23 0.22 0.23 -1.23 1.26c-0.23,0.22 -0.43,0.28 -0.65,0.05 -0.22,-0.22 -0.44,-0.45 -0.66,-0.68 -0.08,-0.06 -0.19,-0.08 -0.29,0.01l0 0.01 -0.01 0c-0.52,0.51 -1.05,1.01 -1.57,1.52l-0.12 0.11 -0.22 -0.23 0.12 -0.11c0.52,-0.5 1.04,-1.01 1.57,-1.51z"/>
   <polygon class="fil0 str0" points="28.41,19.1 30.55,18.73 30.58,20.89 30.26,20.9 30.24,19.1 28.47,19.41 "/>
   <path class="fil0 str0" d="M26.53 21.03c0.22,-0.21 0.48,-0.26 0.71,-0.05l0.01 0.01 0.02 0.01 0.62 0.64c0.14,0.14 0.1,0.15 0.28,-0.03l1.68 -1.71 0.23 0.22 -1.72 1.74c-0.23,0.22 -0.43,0.29 -0.64,0.06 -0.23,-0.23 -0.45,-0.45 -0.67,-0.68 -0.08,-0.07 -0.18,-0.09 -0.28,0.01l-0.01 0 0 0.01c-0.57,0.54 -0.73,0.68 -1.29,1.22l-0.22 -0.23c0.56,-0.54 0.72,-0.67 1.28,-1.22z"/>
   <path class="fil1 str0" d="M25.12 21.83c0.52,-0.51 1.05,-1.01 1.57,-1.52l0.01 0 0 -0.01c0.1,-0.09 0.21,-0.07 0.29,-0.01 0.22,0.23 0.44,0.46 0.66,0.68 0.22,0.23 0.42,0.17 0.65,-0.05l1.23 -1.26 -0.22 -0.23 -1.21 1.23c-0.17,0.18 -0.14,0.18 -0.27,0.03l-0.63 -0.64 -0.01 -0.01 -0.02 -0.01c-0.23,-0.2 -0.49,-0.16 -0.7,0.06 -0.53,0.5 -1.05,1.01 -1.57,1.51l-0.12 0.11 0.22 0.23 0.12 -0.11z"/>
   <path class="fil1 str0" d="M26.53 21.03c-0.56,0.55 -0.72,0.68 -1.28,1.22l0.22 0.23c0.56,-0.54 0.72,-0.68 1.29,-1.22l0 -0.01 0.01 0c0.1,-0.1 0.2,-0.08 0.28,-0.01 0.22,0.23 0.44,0.45 0.67,0.68 0.21,0.23 0.41,0.16 0.64,-0.06l1.72 -1.74 -0.23 -0.22 -1.68 1.71c-0.18,0.18 -0.14,0.17 -0.28,0.03l-0.62 -0.64 -0.02 -0.01 -0.01 -0.01c-0.23,-0.21 -0.49,-0.16 -0.71,0.05z"/>
   <polygon class="fil1 str0" points="30.24,19.1 30.26,20.9 30.58,20.89 30.55,18.73 28.41,19.1 28.47,19.41 "/>
  </g>
 </g>
</svg>
